<svg width="61" height="46" viewBox="0 0 61 46" fill="none" xmlns="http://www.w3.org/2000/svg">
<rect x="0.5" width="60" height="46" rx="12" fill="#792AFF" fill-opacity="0.05"/>
<g clip-path="url(#clip0_2312_6386)">
<path d="M27.0402 27.0781C22.5714 27.0781 18.9487 23.4554 18.9487 18.9865C18.9487 14.5177 22.5714 10.895 27.0402 10.895C31.5091 10.895 35.1318 14.5177 35.1318 18.9865C35.1318 19.3622 35.1062 19.7319 35.0566 20.094" fill="#792AFF" fill-opacity="0.75"/>
<path d="M27.0402 27.0781C22.5714 27.0781 18.9487 23.4554 18.9487 18.9865C18.9487 14.5177 22.5714 10.895 27.0402 10.895C31.5091 10.895 35.1318 14.5177 35.1318 18.9865C35.1318 19.3622 35.1062 19.7319 35.0566 20.094" stroke="#1A1818" stroke-width="1.2" stroke-linecap="round"/>
<path d="M30.4443 34.105V24.7299C30.4443 24.1379 30.6795 23.5702 31.0981 23.1516C31.5167 22.733 32.0845 22.4978 32.6765 22.4978C33.2685 22.4978 33.8362 22.733 34.2548 23.1516C34.6734 23.5702 34.9086 24.1379 34.9086 24.7299V29.6407H38.4801C39.4273 29.6407 40.3357 30.0169 41.0055 30.6868C41.6751 31.3564 42.0516 32.2648 42.0516 33.2121V34.105" fill="white"/>
<path d="M30.4443 34.105V24.7299C30.4443 24.1379 30.6795 23.5702 31.0981 23.1516C31.5167 22.733 32.0845 22.4978 32.6765 22.4978C33.2685 22.4978 33.8362 22.733 34.2548 23.1516C34.6734 23.5702 34.9086 24.1379 34.9086 24.7299V29.6407H38.4801C39.4273 29.6407 40.3357 30.0169 41.0055 30.6868C41.6751 31.3564 42.0516 32.2648 42.0516 33.2121V34.105" stroke="#1A1818" stroke-width="1.2" stroke-linecap="round" stroke-linejoin="round"/>
<path d="M26.5714 15.6667V14M26.5714 24V22.3333M24 19H27.4286C27.8832 19 28.3193 18.8244 28.6408 18.5118C28.9622 18.1993 29.1429 17.7754 29.1429 17.3333C29.1429 16.8913 28.9622 16.4674 28.6408 16.1548C28.3193 15.8423 27.8832 15.6667 27.4286 15.6667H24V19ZM24 19H28.2857C28.7404 19 29.1764 19.1756 29.4979 19.4882C29.8194 19.8007 30 20.2246 30 20.6667C30 21.1087 29.8194 21.5326 29.4979 21.8452C29.1764 22.1577 28.7404 22.3333 28.2857 22.3333H24V19Z" stroke="white" stroke-width="1.2" stroke-linecap="round" stroke-linejoin="round"/>
</g>
<defs>
<clipPath id="clip0_2312_6386">
<rect width="25" height="25" fill="white" transform="translate(18 10)"/>
</clipPath>
</defs>
</svg>
