<svg width="61" height="46" viewBox="0 0 61 46" fill="none" xmlns="http://www.w3.org/2000/svg">
<rect x="0.5" width="60" height="46" rx="12" fill="#792AFF" fill-opacity="0.05"/>
<path fill-rule="evenodd" clip-rule="evenodd" d="M30.8979 30.6379C32.4203 29.851 37.7918 26.7029 37.7918 21.4584C37.7918 17.4313 34.5272 14.1667 30.5002 14.1667C26.4731 14.1667 23.2085 17.4313 23.2085 21.4584C23.2085 26.7029 28.58 29.851 30.1024 30.6379C30.3554 30.7687 30.6449 30.7687 30.8979 30.6379ZM30.5002 24.5834C32.2261 24.5834 33.6252 23.1843 33.6252 21.4584C33.6252 19.7325 32.2261 18.3334 30.5002 18.3334C28.7743 18.3334 27.3752 19.7325 27.3752 21.4584C27.3752 23.1843 28.7743 24.5834 30.5002 24.5834Z" fill="#792AFF" fill-opacity="0.75"/>
<path d="M30.8979 30.6379L31.1734 31.1709H31.1734L30.8979 30.6379ZM30.1024 30.6379L29.8269 31.1709H29.8269L30.1024 30.6379ZM37.1918 21.4584C37.1918 23.8624 35.9623 25.8172 34.4904 27.2966C33.0192 28.7753 31.3568 29.7254 30.6224 30.1049L31.1734 31.1709C31.9615 30.7636 33.746 29.7462 35.3411 28.143C36.9356 26.5404 38.3918 24.2989 38.3918 21.4584H37.1918ZM30.5002 14.7667C34.1959 14.7667 37.1918 17.7627 37.1918 21.4584H38.3918C38.3918 17.1 34.8586 13.5667 30.5002 13.5667V14.7667ZM23.8085 21.4584C23.8085 17.7627 26.8045 14.7667 30.5002 14.7667V13.5667C26.1417 13.5667 22.6085 17.1 22.6085 21.4584H23.8085ZM30.3779 30.1049C29.6435 29.7254 27.9811 28.7753 26.5099 27.2966C25.038 25.8172 23.8085 23.8624 23.8085 21.4584H22.6085C22.6085 24.2989 24.0648 26.5404 25.6592 28.143C27.2543 29.7462 29.0388 30.7636 29.8269 31.1709L30.3779 30.1049ZM30.6224 30.1049C30.5422 30.1464 30.4581 30.1464 30.3779 30.1049L29.8269 31.1709C30.2527 31.3911 30.7476 31.3911 31.1734 31.1709L30.6224 30.1049ZM33.0252 21.4584C33.0252 22.8529 31.8947 23.9834 30.5002 23.9834V25.1834C32.5574 25.1834 34.2252 23.5157 34.2252 21.4584H33.0252ZM30.5002 18.9334C31.8947 18.9334 33.0252 20.0639 33.0252 21.4584H34.2252C34.2252 19.4012 32.5574 17.7334 30.5002 17.7334V18.9334ZM27.9752 21.4584C27.9752 20.0639 29.1056 18.9334 30.5002 18.9334V17.7334C28.4429 17.7334 26.7752 19.4012 26.7752 21.4584H27.9752ZM30.5002 23.9834C29.1056 23.9834 27.9752 22.8529 27.9752 21.4584H26.7752C26.7752 23.5157 28.4429 25.1834 30.5002 25.1834V23.9834Z" fill="#1A1818"/>
</svg>
